<?xml version="1.0" encoding="UTF-8"?>
<svg width="420px" height="132px" viewBox="0 0 420 132" version="1.1" xmlns="http://www.w3.org/2000/svg" xmlns:xlink="http://www.w3.org/1999/xlink">
    <!-- Generator: Sketch 50.2 (55047) - http://www.bohemiancoding.com/sketch -->
    <title>logo</title>
    <desc>Created with Sketch.</desc>
    <defs></defs>
    <g id="Page-1" stroke="none" stroke-width="1" fill="none" fill-rule="evenodd">
        <g id="Artboard-4" transform="translate(-370.000000, -183.000000)">
            <g id="logo" transform="translate(370.000000, 183.000000)">
                <g id="Group" fill="#FFFFFF">
                    <path d="M0,64.7166667 C0,56.7721825 1.4144304,48.9500385 4.24333362,41.25 C7.07223684,33.5499615 11.2232826,26.644475 16.6965953,20.5333333 C22.1699081,14.4221917 28.8115812,9.47224117 36.6218141,5.68333333 C44.4320469,1.8944255 53.3183596,-3.9177795e-14 63.2810188,0 C74.965619,-3.9177795e-14 85.1741167,2.59719625 93.9068179,7.79166667 C102.639519,12.9861371 109.096701,19.8610683 113.278558,28.4166667 L85.7891362,47.85 C84.6821741,44.6722063 83.2369952,42.0444548 81.4535562,39.9666667 C79.6701172,37.8888785 77.7329626,36.238895 75.6420341,35.0166667 C73.5511056,33.7944383 71.3372146,32.9388913 69.0002945,32.45 C66.6633745,31.9611087 64.5109804,31.7166667 62.5430477,31.7166667 C57.9922034,31.7166667 54.0871455,32.7249899 50.827757,34.7416667 C47.5683686,36.7583434 44.8625017,39.3860949 42.7100753,42.625 C40.557649,45.8639051 38.9894761,49.5305351 38.0055098,53.625 C37.0215435,57.7194649 36.5295677,61.7833132 36.5295677,65.8166667 C36.5295677,70.3389115 37.1137889,74.677757 38.282249,78.8333333 C39.450709,82.9889097 41.1726242,86.6555397 43.4480464,89.8333333 C45.7234686,93.011127 48.4908324,95.5472128 51.7502209,97.4416667 C55.0096094,99.3361206 58.7301763,100.283333 62.9120332,100.283333 C65.0029617,100.283333 67.1553558,100.008336 69.36928,99.4583333 C71.5832043,98.9083306 73.7048499,97.9916731 75.7342805,96.7083333 C77.763711,95.4249936 79.6086203,93.7750101 81.2690634,91.7583333 C82.9295066,89.7416566 84.2516916,87.2666813 85.2356579,84.3333333 L114.570008,101.75 C112.725071,106.516691 109.926959,110.794426 106.175587,114.583333 C102.424215,118.372241 98.1501755,121.549987 93.3533396,124.116667 C88.5565037,126.683346 83.4522549,128.638882 78.04044,129.983333 C72.6286252,131.327785 67.3398854,132 62.1740622,132 C53.0723735,132 44.7087851,130.075019 37.083046,126.225 C29.4573069,122.374981 22.9078792,117.272254 17.4345664,110.916667 C11.9612536,104.561079 7.68721396,97.3500403 4.61231915,89.2833333 C1.53742434,81.2166263 0,73.0278193 0,64.7166667 Z M243.992422,0.733333333 L243.992422,130.9 L208.016333,130.9 L208.016333,79.9333333 L164.107055,79.9333333 L164.107055,130.9 L128.130965,130.9 L128.130965,0.733333333 L164.107055,0.733333333 L164.107055,48.7666667 L208.016333,48.7666667 L208.016333,0.733333333 L243.992422,0.733333333 Z M264.19512,130.9 L264.19512,45.8333333 L299.248745,45.8333333 L299.248745,130.9 L264.19512,130.9 Z M319.451442,130.9 L319.451442,0.733333333 L375.906229,0.733333333 C382.30201,0.733333333 388.20572,2.04720908 393.617534,4.675 C399.029349,7.30279092 403.672371,10.7249789 407.546738,14.9416667 C411.421106,19.1583544 414.465206,23.9860839 416.67913,29.425 C418.893054,34.8639161 420,40.3333058 420,45.8333333 C420,51.5778065 418.954551,57.1694172 416.863623,62.6083333 C414.772695,68.0472494 411.851588,72.8749789 408.100217,77.0916667 C404.348845,81.3083544 399.798069,84.6694319 394.447752,87.175 C389.097435,89.6805681 383.224474,90.9333333 376.828693,90.9333333 L355.427532,90.9333333 L355.427532,130.9 L319.451442,130.9 Z M355.427532,59.7666667 L374.430287,59.7666667 C376.644211,59.7666667 378.70436,58.7583434 380.610794,56.7416667 C382.517229,54.7249899 383.470432,51.0889152 383.470432,45.8333333 C383.470432,40.4555287 382.363487,36.7888987 380.149563,34.8333333 C377.935638,32.877768 375.721747,31.9 373.507823,31.9 L355.427532,31.9 L355.427532,59.7666667 Z" id="CHiP"></path>
                </g>
                <rect id="Rectangle-9" fill="#FF1FB3" x="264.142857" y="0" width="35.0499992" height="35.0499992"></rect>
            </g>
        </g>
    </g>
</svg>