<?xml version="1.0" encoding="UTF-8"?>
<svg width="227px" height="138px" viewBox="0 0 227 138" version="1.1" xmlns="http://www.w3.org/2000/svg" xmlns:xlink="http://www.w3.org/1999/xlink">
    <!-- Generator: Sketch 50.2 (55047) - http://www.bohemiancoding.com/sketch -->
    <title>rich_icons</title>
    <desc>Created with Sketch.</desc>
    <defs>
        <linearGradient x1="20.2162786%" y1="-1.04083409e-15%" x2="70.6099558%" y2="95.7189306%" id="linearGradient-1">
            <stop stop-color="#D000FF" offset="0%"></stop>
            <stop stop-color="#5000FF" offset="100%"></stop>
        </linearGradient>
        <linearGradient x1="70.6099558%" y1="95.7189306%" x2="20.2162786%" y2="0%" id="linearGradient-2">
            <stop stop-color="#D000FF" offset="0%"></stop>
            <stop stop-color="#FF0076" offset="100%"></stop>
        </linearGradient>
        <linearGradient x1="100%" y1="100%" x2="-1.11022302e-14%" y2="-8.96153232%" id="linearGradient-3">
            <stop stop-color="#FF00A6" offset="0%"></stop>
            <stop stop-color="#FF8400" offset="100%"></stop>
        </linearGradient>
        <linearGradient x1="20.5332519%" y1="-6.9388939e-16%" x2="78.244986%" y2="100%" id="linearGradient-4">
            <stop stop-color="#2800FF" offset="0%"></stop>
            <stop stop-color="#00DCFF" offset="100%"></stop>
        </linearGradient>
    </defs>
    <g id="Page-1" stroke="none" stroke-width="1" fill="none" fill-rule="evenodd">
        <g id="iPhone-SE" transform="translate(-47.000000, -3205.000000)">
            <g id="rich_icons" transform="translate(40.000000, 3199.000000)">
                <g id="s_icon_camera" transform="translate(171.678832, 0.000000)">
                    <path d="M57.5036496,57.7681765 L10.9313869,57.7681765 C8.6540146,57.7681765 6.83211679,55.9451176 6.83211679,53.6662941 L6.83211679,20.8512353 C6.83211679,18.5724118 8.6540146,16.7493529 10.9313869,16.7493529 L21.2934307,16.7493529 L22.4321168,12.9892941 L22.4321168,12.8753529 C22.8875912,12.0777647 23.9124088,10.2547059 26.3036496,10.2547059 L42.0175182,10.2547059 C43.1562044,10.2547059 44.8642336,10.7104706 46.0029197,12.9892941 L47.1416058,16.7493529 L57.389781,16.7493529 C59.6671533,16.7493529 61.4890511,18.5724118 61.4890511,20.8512353 L61.4890511,53.6662941 C61.4890511,55.9451176 59.6671533,57.7681765 57.5036496,57.7681765 Z M59.2116788,20.8512353 C59.2116788,19.8257647 58.4145985,19.0281765 57.389781,19.0281765 L47.1416058,19.0281765 C46.1167883,19.0281765 45.2058394,18.3445294 44.9781022,17.433 L43.9532847,13.9008235 C43.1562044,12.5335294 42.3591241,12.5335294 42.0175182,12.5335294 L26.3036496,12.5335294 C25.5065693,12.5335294 25.0510949,12.9892941 24.4817518,13.9008235 L23.4569343,17.433 C23.1153285,18.3445294 22.3182482,19.0281765 21.2934307,19.0281765 L10.9313869,19.0281765 C9.90656934,19.0281765 9.10948905,19.8257647 9.10948905,20.8512353 L9.10948905,53.6662941 C9.10948905,54.6917647 9.90656934,55.4893529 10.9313869,55.4893529 L57.5036496,55.4893529 C58.5284672,55.4893529 59.3255474,54.6917647 59.3255474,53.6662941 L59.2116788,20.8512353 Z M34.1605839,49.4504706 C27.2145985,49.4504706 21.6350365,43.8673529 21.6350365,36.9169412 C21.6350365,29.9665294 27.2145985,24.3834118 34.1605839,24.3834118 C41.1065693,24.3834118 46.6861314,29.9665294 46.6861314,36.9169412 C46.6861314,43.8673529 41.1065693,49.4504706 34.1605839,49.4504706 Z M34.1605839,26.6622353 C28.4671533,26.6622353 23.9124088,31.2198824 23.9124088,36.9169412 C23.9124088,42.614 28.4671533,47.1716471 34.1605839,47.1716471 C39.8540146,47.1716471 44.4087591,42.614 44.4087591,36.9169412 C44.4087591,31.2198824 39.8540146,26.6622353 34.1605839,26.6622353 Z M18.7883212,24.7252353 L13.0948905,24.7252353 C12.4116788,24.7252353 11.9562044,24.2694706 11.9562044,23.5858235 C11.9562044,22.9021765 12.4116788,22.4464118 13.0948905,22.4464118 L18.7883212,22.4464118 C19.4715328,22.4464118 19.9270073,22.9021765 19.9270073,23.5858235 C19.9270073,24.1555294 19.4715328,24.7252353 18.7883212,24.7252353 Z" id="Shape" fill="url(#linearGradient-1)" fill-rule="nonzero"></path>
                    <rect id="Rectangle-4" x="0" y="0" width="68.3211679" height="68.3647059"></rect>
                </g>
                <g id="s_icon_present" transform="translate(85.839416, 0.000000)">
                    <path d="M58.3007299,33.6857597 L58.3007299,58.0416361 C58.3007299,59.436466 57.1620438,60.6167068 55.6817518,60.6167068 L13.0948905,60.6167068 C11.7284672,60.6167068 10.4759124,59.436466 10.4759124,58.0416361 L10.4759124,33.6857597 C9.10948905,33.5784651 7.97080292,32.3982244 7.97080292,30.8960999 L7.97080292,24.2438341 C7.97080292,22.7417095 9.10948905,21.4541742 10.589781,21.4541742 L17.4218978,21.4541742 C15.3722628,19.8447551 14.0058394,17.3769791 14.0058394,15.1237923 C14.0058394,11.7976594 16.8525547,9.11529412 20.3824818,9.11529412 C23.5708029,9.11529412 26.5313869,11.1538917 28.4671533,14.6946138 C29.8335766,17.2696845 31.9970803,19.7374605 31.9970803,19.7374605 L33.4773723,21.3468796 L35.4131387,21.3468796 L36.8934307,19.7374605 C36.8934307,19.7374605 39.0569343,17.2696845 40.4233577,14.6946138 C42.3591241,11.1538917 45.2058394,9.11529412 48.5080292,9.11529412 C52.0379562,9.11529412 54.8846715,11.7976594 54.8846715,15.1237923 C54.8846715,17.3769791 53.5182482,19.7374605 51.4686131,21.4541742 L58.3007299,21.4541742 C59.7810219,21.4541742 60.919708,22.7417095 60.919708,24.2438341 L60.919708,30.8960999 C60.6919708,32.3982244 59.6671533,33.5784651 58.3007299,33.6857597 Z M26.4175182,15.6602653 C25.0510949,13.1924893 23.0014599,11.2611863 20.3824818,11.2611863 C18.1051095,11.2611863 16.2832117,12.9779001 16.2832117,15.1237923 C16.2832117,18.4499252 19.9270073,21.1322904 22.7737226,21.1322904 C23.9124088,21.1322904 30.1751825,21.1322904 30.1751825,21.1322904 C30.1751825,21.1322904 27.8978102,18.5572198 26.4175182,15.6602653 Z M52.4934307,15.1237923 C52.4934307,12.9779001 50.6715328,11.2611863 48.3941606,11.2611863 C45.7751825,11.2611863 43.7255474,13.1924893 42.3591241,15.6602653 C40.8788321,18.5572198 38.4875912,21.1322904 38.4875912,21.1322904 C38.4875912,21.1322904 44.750365,21.1322904 45.8890511,21.1322904 C48.849635,21.1322904 52.4934307,18.4499252 52.4934307,15.1237923 Z M55.6817518,58.4708146 C55.7956204,58.4708146 56.0233577,58.2562253 56.0233577,58.0416361 L56.0233577,33.6857597 L40.0817518,33.6857597 L40.0817518,58.4708146 L55.6817518,58.4708146 Z M37.8043796,58.4708146 L37.8043796,23.4927718 L30.9722628,23.4927718 L30.9722628,58.4708146 L37.8043796,58.4708146 Z M13.0948905,58.4708146 L28.6948905,58.4708146 L28.6948905,33.6857597 L12.8671533,33.6857597 L12.8671533,58.0416361 C12.7532847,58.3635199 12.9810219,58.4708146 13.0948905,58.4708146 Z M10.2481752,24.2438341 L10.2481752,30.8960999 C10.2481752,31.3252783 10.4759124,31.5398675 10.589781,31.5398675 L28.5810219,31.5398675 L28.5810219,23.6000664 L10.589781,23.6000664 C10.4759124,23.6000664 10.2481752,23.8146556 10.2481752,24.2438341 Z M58.4145985,24.2438341 C58.4145985,23.8146556 58.1868613,23.6000664 58.0729927,23.6000664 L39.9678832,23.6000664 L39.9678832,31.5398675 L58.0729927,31.5398675 C58.1868613,31.5398675 58.4145985,31.3252783 58.4145985,30.8960999 L58.4145985,24.2438341 Z" id="Shape" fill="url(#linearGradient-2)" fill-rule="nonzero"></path>
                    <rect id="Rectangle-4" x="0" y="0" width="68.3211679" height="68.3647059"></rect>
                </g>
                <g id="s_icon_chat" transform="translate(0.000000, 80.635294)">
                    <path d="M57.5036496,51.3874706 L42.3591241,51.3874706 L42.3591241,61.5282353 C42.3591241,61.984 42.1313869,62.4397647 41.6759124,62.5537059 C41.5620438,62.6676471 41.3343066,62.6676471 41.220438,62.6676471 C40.9927007,62.6676471 40.6510949,62.5537059 40.4233577,62.3258235 L28.6948905,51.3874706 L10.8175182,51.3874706 C9.22335766,51.3874706 7.97080292,50.1341176 7.97080292,48.5389412 L7.97080292,14.2426471 C7.97080292,12.6474706 9.22335766,11.3941176 10.8175182,11.3941176 L57.5036496,11.3941176 C59.0978102,11.3941176 60.350365,12.6474706 60.350365,14.2426471 L60.350365,48.5389412 C60.4642336,50.0201765 59.0978102,51.3874706 57.5036496,51.3874706 Z M58.1868613,14.1287059 C58.1868613,13.7868824 57.9591241,13.559 57.6175182,13.559 L10.9313869,13.559 C10.589781,13.559 10.3620438,13.7868824 10.3620438,14.1287059 L10.3620438,48.425 C10.3620438,48.7668235 10.589781,48.9947059 10.9313869,48.9947059 L29.2642336,48.9947059 C29.6058394,48.9947059 29.8335766,49.1086471 30.0613139,49.3365294 L40.1956204,58.7936471 L40.1956204,50.1341176 C40.1956204,49.4504706 40.6510949,48.9947059 41.3343066,48.9947059 L57.5036496,48.9947059 C57.8452555,48.9947059 58.0729927,48.7668235 58.0729927,48.425 L58.1868613,14.1287059 Z M50.2160584,41.3606471 L18.3328467,41.3606471 C17.649635,41.3606471 17.1941606,40.9048824 17.1941606,40.2212353 C17.1941606,39.5375882 17.649635,39.0818235 18.3328467,39.0818235 L50.2160584,39.0818235 C50.8992701,39.0818235 51.3547445,39.5375882 51.3547445,40.2212353 C51.3547445,40.7909412 50.7854015,41.3606471 50.2160584,41.3606471 Z M50.2160584,32.4732353 L18.3328467,32.4732353 C17.649635,32.4732353 17.1941606,32.0174706 17.1941606,31.3338235 C17.1941606,30.6501765 17.649635,30.1944118 18.3328467,30.1944118 L50.2160584,30.1944118 C50.8992701,30.1944118 51.3547445,30.6501765 51.3547445,31.3338235 C51.3547445,31.9035294 50.7854015,32.4732353 50.2160584,32.4732353 Z M36.5518248,23.5858235 L18.3328467,23.5858235 C17.649635,23.5858235 17.1941606,23.1300588 17.1941606,22.4464118 C17.1941606,21.7627647 17.649635,21.307 18.3328467,21.307 L36.5518248,21.307 C37.2350365,21.307 37.6905109,21.7627647 37.6905109,22.4464118 C37.6905109,23.0161176 37.1211679,23.5858235 36.5518248,23.5858235 Z" id="Shape" fill="url(#linearGradient-2)" fill-rule="nonzero"></path>
                    <rect id="Rectangle-4" x="0" y="0" width="68.3211679" height="68.3647059"></rect>
                </g>
                <g id="s_icon_voice">
                    <path d="M35.8686131,54.4638824 L35.5270073,54.4638824 L35.5270073,59.2494118 L42.5868613,59.2494118 C43.270073,59.2494118 43.7255474,59.7051765 43.7255474,60.3888235 C43.7255474,61.0724706 43.270073,61.5282353 42.5868613,61.5282353 L26.0759124,61.5282353 C25.3927007,61.5282353 24.9372263,61.0724706 24.9372263,60.3888235 C24.9372263,59.7051765 25.3927007,59.2494118 26.0759124,59.2494118 L33.1357664,59.2494118 L33.1357664,54.4638824 L32.7941606,54.4638824 C21.2934307,54.4638824 12.5255474,45.3485882 12.5255474,33.2708235 L12.5255474,31.3338235 C12.5255474,30.6501765 12.9810219,30.1944118 13.6642336,30.1944118 C14.3474453,30.1944118 14.8029197,30.6501765 14.8029197,31.3338235 L14.8029197,33.2708235 C14.8029197,44.2091765 22.3182482,52.1850588 32.7941606,52.1850588 L35.7547445,52.1850588 C46.1167883,52.1850588 53.7459854,44.2091765 53.7459854,33.2708235 L53.7459854,31.3338235 C53.7459854,30.6501765 54.2014599,30.1944118 54.8846715,30.1944118 C55.5678832,30.1944118 56.0233577,30.6501765 56.0233577,31.3338235 L56.0233577,33.2708235 C56.1372263,45.3485882 47.4832117,54.4638824 35.8686131,54.4638824 Z M34.3883212,47.3995294 C27.2145985,47.3995294 21.4072993,42.0442941 21.4072993,35.2078235 L21.4072993,19.0281765 C21.4072993,12.1917059 27.2145985,6.83647059 34.3883212,6.83647059 C41.5620438,6.83647059 47.3693431,12.1917059 47.3693431,19.0281765 L47.3693431,35.2078235 C47.3693431,41.9303529 41.5620438,47.3995294 34.3883212,47.3995294 Z M45.0919708,18.9142353 C45.0919708,13.4450588 40.3094891,9.00135294 34.3883212,9.00135294 C28.4671533,9.00135294 23.6846715,13.4450588 23.6846715,18.9142353 L23.6846715,35.0938824 C23.6846715,40.5630588 28.4671533,45.0067647 34.3883212,45.0067647 C40.3094891,45.0067647 45.0919708,40.5630588 45.0919708,35.0938824 L45.0919708,18.9142353 Z" id="Shape" fill="url(#linearGradient-3)" fill-rule="nonzero"></path>
                    <rect id="Rectangle-4" x="0" y="0" width="68.3211679" height="68.3647059"></rect>
                </g>
                <g id="s_icon_image" transform="translate(171.678832, 80.635294)">
                    <path d="M57.6175182,60.047 L10.8175182,60.047 C8.6540146,60.047 6.83211679,58.2239412 6.83211679,56.0590588 L6.83211679,11.9638235 C6.83211679,9.79894118 8.6540146,7.97588235 10.8175182,7.97588235 L57.6175182,7.97588235 C59.7810219,7.97588235 61.6029197,9.79894118 61.6029197,11.9638235 L61.6029197,56.0590588 C61.6029197,58.3378824 59.7810219,60.047 57.6175182,60.047 Z M57.6175182,10.3686471 L10.8175182,10.3686471 C9.90656934,10.3686471 9.10948905,11.1662353 9.10948905,12.0777647 L9.10948905,56.173 C9.10948905,57.0845294 9.90656934,57.8821176 10.8175182,57.8821176 L57.6175182,57.8821176 C58.5284672,57.8821176 59.3255474,57.0845294 59.3255474,56.173 L59.3255474,54.4638824 L46.8,35.2078235 C46.8,35.0938824 46.6861314,35.0938824 46.6861314,34.9799412 C45.7751825,33.9544706 44.1810219,33.8405294 43.1562044,34.7520588 L34.6160584,42.2721765 C34.1605839,42.614 33.5912409,42.614 33.1357664,42.2721765 L30.0613139,39.9933529 C30.0613139,39.9933529 29.9474453,39.9933529 29.9474453,39.8794118 C29.0364964,39.0818235 27.5562044,38.9678824 26.6452555,39.7654706 L17.4218978,47.3995294 C16.9664234,47.8552941 16.1693431,47.7413529 15.8277372,47.2855882 C15.3722628,46.8298235 15.4861314,46.0322353 15.9416058,45.6904118 L25.1649635,38.0563529 C26.9868613,36.5751176 29.719708,36.6890588 31.4277372,38.2842353 L33.7051095,39.9933529 L41.4481752,33.0429412 C42.3591241,32.2453529 43.3839416,31.9035294 44.6364964,31.9035294 C46.0029197,31.9035294 47.2554745,32.4732353 48.1664234,33.4987059 C48.280292,33.6126471 48.3941606,33.8405294 48.5080292,33.9544706 L59.0978102,50.2480588 L59.0978102,12.0777647 C59.3255474,11.1662353 58.5284672,10.3686471 57.6175182,10.3686471 Z M22.5459854,32.5871765 C18.1051095,32.5871765 14.5751825,29.055 14.5751825,24.6112941 C14.5751825,20.1675882 18.1051095,16.6354118 22.5459854,16.6354118 C26.9868613,16.6354118 30.5167883,20.1675882 30.5167883,24.6112941 C30.5167883,28.9410588 26.9868613,32.5871765 22.5459854,32.5871765 Z M22.5459854,18.9142353 C19.3576642,18.9142353 16.8525547,21.4209412 16.8525547,24.6112941 C16.8525547,27.8016471 19.3576642,30.3083529 22.5459854,30.3083529 C25.7343066,30.3083529 28.2394161,27.8016471 28.2394161,24.6112941 C28.2394161,21.4209412 25.7343066,18.9142353 22.5459854,18.9142353 Z" id="Shape" fill="url(#linearGradient-4)" fill-rule="nonzero"></path>
                    <rect id="Rectangle-4" x="0" y="0" width="68.3211679" height="68.3647059"></rect>
                </g>
                <g id="s_icon_music" transform="translate(85.839416, 80.635294)">
                    <path d="M50.2160584,56.6287647 C45.0919708,56.6287647 40.8788321,52.4129412 40.8788321,47.2855882 C40.8788321,42.1582353 45.0919708,37.9424118 50.2160584,37.9424118 C53.0627737,37.9424118 55.5678832,39.1957647 57.2759124,41.1327647 L57.2759124,19.1421176 L32.9080292,21.5348824 C28.8087591,21.7627647 25.5065693,25.2949412 25.5065693,29.2828824 L25.5065693,52.299 C25.5065693,57.4263529 21.2934307,61.6421765 16.1693431,61.6421765 C11.0452555,61.6421765 6.83211679,57.4263529 6.83211679,52.299 C6.83211679,47.1716471 11.0452555,42.9558235 16.1693431,42.9558235 C19.0160584,42.9558235 21.5211679,44.2091765 23.2291971,46.1461765 L23.2291971,19.37 C23.2291971,14.1287059 27.4423358,9.685 32.680292,9.34317647 L58.0729927,6.83647059 C58.3007299,6.83647059 58.6423358,6.95041176 58.870073,7.06435294 C58.870073,7.06435294 58.870073,7.06435294 58.9839416,7.06435294 C59.3255474,7.29223529 59.5532847,7.63405882 59.5532847,8.08982353 L59.5532847,47.1716471 C59.4394161,52.5268824 55.340146,56.6287647 50.2160584,56.6287647 Z M16.1693431,45.4625294 C12.2978102,45.4625294 9.10948905,48.6528824 9.10948905,52.5268824 C9.10948905,56.4008824 12.2978102,59.5912353 16.1693431,59.5912353 C20.0408759,59.5912353 23.2291971,56.4008824 23.2291971,52.5268824 C23.2291971,48.5389412 20.0408759,45.4625294 16.1693431,45.4625294 Z M25.5065693,19.5978824 L25.5065693,23.1300588 C27.2145985,20.9651765 29.8335766,19.5978824 32.680292,19.37 L57.2759124,16.8632941 L57.2759124,9.45711765 L32.9080292,11.8498824 C28.6948905,12.0777647 25.5065693,15.496 25.5065693,19.5978824 Z M50.2160584,40.3351765 C46.3445255,40.3351765 43.1562044,43.5255294 43.1562044,47.3995294 C43.1562044,51.2735294 46.3445255,54.4638824 50.2160584,54.4638824 C54.0875912,54.4638824 57.2759124,51.2735294 57.2759124,47.3995294 C57.1620438,43.5255294 54.0875912,40.3351765 50.2160584,40.3351765 Z" id="Shape" fill="url(#linearGradient-1)" fill-rule="nonzero"></path>
                    <rect id="Rectangle-4" x="0" y="0" width="68.3211679" height="68.3647059"></rect>
                </g>
            </g>
        </g>
    </g>
</svg>