<?xml version="1.0" encoding="UTF-8"?>
<svg width="120px" height="120px" viewBox="0 0 120 120" version="1.1" xmlns="http://www.w3.org/2000/svg" xmlns:xlink="http://www.w3.org/1999/xlink">
    <!-- Generator: Sketch 50.2 (55047) - http://www.bohemiancoding.com/sketch -->
    <title>merit_money-icon</title>
    <desc>Created with Sketch.</desc>
    <defs></defs>
    <g id="merit_money-icon" stroke="none" stroke-width="1" fill="none" fill-rule="evenodd">
        <g id="point_money-icon">
            <g transform="translate(7.000000, 8.000000)" fill="#000000" fill-rule="nonzero">
                <path d="M92.9775,71.836915 C89.9383333,71.836915 87.0522917,72.4321632 85.05875,73.4698059 C85.0470833,73.4742152 85.0441667,73.4845034 85.0325,73.4889127 L73.3483333,79.0386844 C73.35125,78.9696062 73.3629167,78.9019977 73.3629167,78.8314498 C73.3629167,75.7846604 70.9070833,73.3051941 67.8941667,73.3051941 C67.8795833,73.3051941 67.8708333,73.3125428 67.8577083,73.3125428 L54.2120833,73.3125428 C52.85875,72.5056507 51.6352083,71.409218 50.3475,70.2407677 C46.97,67.1734018 43.1433333,63.6974458 35.2625,63.6974458 L20.496875,63.6974458 L20.496875,60.6359589 C20.496875,59.8246575 19.8435417,59.16621 19.0385417,59.16621 L2.63229167,59.16621 C1.82729167,59.16621 1.17395833,59.8246575 1.17395833,60.6359589 L1.17395833,96.6448059 C1.17395833,97.4575771 1.82729167,98.1145548 2.63229167,98.1145548 L19.0385417,98.1145548 C19.8435417,98.1145548 20.496875,97.4575771 20.496875,96.6448059 L20.496875,90.9803938 C27.444375,94.988399 42.27125,101.803624 55.7433333,101.803624 C58.0620833,101.803624 60.3458333,101.599329 62.53625,101.146647 C62.5420833,101.145177 62.545,101.140768 62.5508333,101.139298 C62.6733333,101.112842 62.7958333,101.073159 62.9125,101.01143 L100.323125,81.4975742 C100.724167,81.3197346 101.078542,81.1389555 101.374583,80.9552369 C101.416875,80.9317209 101.460625,80.9082049 101.502917,80.8817494 C103.422083,79.6545091 103.8275,78.2817637 103.8275,77.3484732 C103.826042,73.7299515 98.3689583,71.836915 92.9775,71.836915 Z M17.5802083,95.1765268 L4.090625,95.1765268 L4.090625,62.1071775 L17.5802083,62.1071775 L17.5802083,95.1765268 Z M20.496875,87.5646975 L20.496875,66.6384132 L35.2625,66.6384132 C42.021875,66.6384132 45.2608333,69.5808505 48.3947917,72.4262842 C49.835625,73.7358305 51.3260417,75.0894692 53.090625,76.0697917 C53.12125,76.0874287 53.1533333,76.0933076 53.1825,76.1065354 C53.2175,76.1227026 53.2539583,76.1359304 53.2904167,76.1491581 C53.4552083,76.2094178 53.624375,76.2505708 53.7935417,76.2505708 C53.7935417,76.2505708 53.7935417,76.2505708 53.795,76.2505708 L67.8941667,76.2505708 C67.9029167,76.2505708 67.90875,76.2461615 67.9175,76.2461615 C69.313125,76.2593893 70.44625,77.4116724 70.44625,78.82998 C70.44625,79.6633276 70.039375,80.439355 69.3554167,80.9273116 C69.3014583,80.9522974 69.2475,80.9816924 69.199375,81.0140268 C68.8202083,81.2550656 68.3564583,81.3888128 67.8941667,81.3888128 C67.8795833,81.3888128 67.8708333,81.3961615 67.8577083,81.3961615 L41.6427083,81.3961615 C40.8377083,81.3961615 40.184375,82.0531393 40.184375,82.8659104 C40.184375,83.6786815 40.8377083,84.3356592 41.6427083,84.3356592 L67.8941667,84.3356592 C67.9116667,84.3356592 67.9277083,84.325371 67.9452083,84.325371 C68.8858333,84.3150828 69.7972917,84.0637557 70.5935417,83.5934361 C70.5964583,83.5934361 70.599375,83.5934361 70.6022917,83.5919663 L86.3508333,76.1109446 C86.3654167,76.1035959 86.3741667,76.0888984 86.3902083,76.0815497 C86.3902083,76.0800799 86.393125,76.0815497 86.3960417,76.0800799 C87.9652083,75.2614298 90.426875,74.7734732 92.9760417,74.7734732 C98.1283333,74.7734732 100.907917,76.5989013 100.907917,77.3455337 C100.907917,77.5439498 100.654167,77.9334332 99.990625,78.3581906 L61.770625,98.2997432 C46.5835417,101.339184 26.376875,91.1861587 20.496875,87.5646975 Z" id="Shape"></path>
                <path d="M55.5479167,62.1071775 C63.5891667,62.1071775 70.13125,55.5153539 70.13125,47.4096889 C70.13125,39.3054937 63.5891667,32.7122003 55.5479167,32.7122003 C47.5052083,32.7122003 40.963125,39.3054937 40.963125,47.4096889 C40.963125,55.5138841 47.5052083,62.1071775 55.5479167,62.1071775 Z M55.5479167,35.6516981 C61.9791667,35.6516981 67.2145833,40.9266267 67.2145833,47.4096889 C67.2145833,53.8927511 61.9791667,59.1676798 55.5479167,59.1676798 C49.11375,59.1676798 43.8797917,53.8927511 43.8797917,47.4096889 C43.8797917,40.9266267 49.11375,35.6516981 55.5479167,35.6516981 Z" id="Shape"></path>
                <path d="M77.8589583,30.4723031 C85.9002083,30.4723031 92.4422917,23.8790097 92.4422917,15.7748145 C92.4422917,7.67061929 85.9002083,1.07732591 77.8589583,1.07732591 C69.8177083,1.07732591 63.275625,7.67061929 63.275625,15.7748145 C63.275625,23.8790097 69.8177083,30.4723031 77.8589583,30.4723031 Z M77.8589583,4.01682363 C84.2902083,4.01682363 89.525625,9.29175228 89.525625,15.7748145 C89.525625,22.2578767 84.2902083,27.5328054 77.8589583,27.5328054 C71.4247917,27.5328054 66.1922917,22.2578767 66.1922917,15.7748145 C66.1922917,9.29175228 71.4247917,4.01682363 77.8589583,4.01682363 Z" id="Shape"></path>
                <path d="M55.5479167,53.7781107 C56.354375,53.7781107 57.00625,53.121133 57.00625,52.3083619 L57.00625,42.511016 C57.00625,41.6997146 56.354375,41.0412671 55.5479167,41.0412671 C54.7414583,41.0412671 54.0895833,41.6997146 54.0895833,42.511016 L54.0895833,52.3083619 C54.0895833,53.121133 54.7414583,53.7781107 55.5479167,53.7781107 Z" id="Shape"></path>
                <path d="M77.8589583,22.5988584 C78.6654167,22.5988584 79.3172917,21.940411 79.3172917,21.1291096 L79.3172917,10.4219892 C79.3172917,9.61068779 78.6654167,8.9522403 77.8589583,8.9522403 C77.0525,8.9522403 76.400625,9.61068779 76.400625,10.4219892 L76.400625,21.1291096 C76.400625,21.940411 77.0525,22.5988584 77.8589583,22.5988584 Z" id="Shape"></path>
                <ellipse id="Oval" cx="10.8354167" cy="89.6737871" rx="2.91666667" ry="2.93949772"></ellipse>
            </g>
            <rect id="Rectangle" x="0" y="0" width="120" height="120"></rect>
        </g>
    </g>
</svg>