<?xml version="1.0" encoding="UTF-8"?>
<svg width="545px" height="995px" viewBox="0 0 545 995" version="1.1" xmlns="http://www.w3.org/2000/svg" xmlns:xlink="http://www.w3.org/1999/xlink">
    <!-- Generator: Sketch 50.2 (55047) - http://www.bohemiancoding.com/sketch -->
    <title>Artboard</title>
    <desc>Created with Sketch.</desc>
    <defs></defs>
    <g id="Artboard" stroke="none" stroke-width="1" fill="none" fill-rule="evenodd">
        <g id="Group-2" transform="translate(276.000000, 509.000000) rotate(75.000000) translate(-276.000000, -509.000000) translate(-209.000000, 353.000000)" fill="#F7F7F7">
            <path d="M0.718385961,157.397364 C0.718385961,139.197273 3.93835376,121.277452 10.378386,103.637364 C16.8184182,85.9972759 26.2683237,70.1774341 38.728386,56.1773641 C51.1884483,42.1772941 66.3082971,30.8374075 84.088386,22.1573641 C101.868475,13.4773207 122.098273,9.13736407 144.778386,9.13736407 C171.378519,9.13736407 194.618287,15.0873046 214.498386,26.9873641 C234.378485,38.8874236 249.078338,54.6372661 258.598386,74.2373641 L196.018386,118.757364 C193.498373,111.477328 190.208406,105.457388 186.148386,100.697364 C182.088366,95.9373403 177.67841,92.1573781 172.918386,89.3573641 C168.158362,86.5573501 163.118413,84.5973697 157.798386,83.4773641 C152.478359,82.3573585 147.578408,81.7973641 143.098386,81.7973641 C132.738334,81.7973641 123.848423,84.107341 116.428386,88.7273641 C109.008349,93.3473872 102.84841,99.367327 97.948386,106.787364 C93.0483615,114.207401 89.4783972,122.607317 87.238386,131.987364 C84.9983748,141.367411 83.878386,150.677318 83.878386,159.917364 C83.878386,170.277416 85.2083727,180.217316 87.868386,189.737364 C90.5283993,199.257412 94.4483601,207.657328 99.628386,214.937364 C104.808412,222.2174 111.108349,228.027342 118.528386,232.367364 C125.948423,236.707386 134.418338,238.877364 143.938386,238.877364 C148.69841,238.877364 153.598361,238.24737 158.638386,236.987364 C163.678411,235.727358 168.508363,233.627379 173.128386,230.687364 C177.748409,227.747349 181.948367,223.967387 185.728386,219.347364 C189.508405,214.727341 192.518375,209.057398 194.758386,202.337364 L261.538386,242.237364 C257.338365,253.157419 250.968429,262.957321 242.428386,271.637364 C233.888343,280.317407 224.158441,287.597335 213.238386,293.477364 C202.318331,299.357393 190.698448,303.837349 178.378386,306.917364 C166.058324,309.997379 154.018445,311.537364 142.258386,311.537364 C121.538282,311.537364 102.498473,307.127408 85.138386,298.307364 C67.7782992,289.48732 52.8684483,277.797437 40.408386,263.237364 C27.9483237,248.677291 18.218421,232.157456 11.218386,213.677364 C4.21835096,195.197272 0.718385961,176.437459 0.718385961,157.397364 Z M556.093741,10.8173641 L556.093741,309.017364 L474.193741,309.017364 L474.193741,192.257364 L374.233741,192.257364 L374.233741,309.017364 L292.333741,309.017364 L292.333741,10.8173641 L374.233741,10.8173641 L374.233741,120.857364 L474.193741,120.857364 L474.193741,10.8173641 L556.093741,10.8173641 Z M607.469096,309.017364 L607.469096,103.137364 L689.369096,103.137364 L689.369096,309.017364 L607.469096,309.017364 Z M740.744451,309.017364 L740.744451,10.8173641 L869.264451,10.8173641 C883.824524,10.8173641 897.264389,13.827334 909.584451,19.8473641 C921.904512,25.8673942 932.474407,33.7073158 941.294451,43.3673641 C950.114495,53.0274124 957.044426,64.0873018 962.084451,76.5473641 C967.124476,89.0074264 969.644451,101.537301 969.644451,114.137364 C969.644451,127.29743 967.264475,140.107302 962.504451,152.567364 C957.744427,165.027426 951.094494,176.087316 942.554451,185.747364 C934.014408,195.407412 923.654512,203.107335 911.474451,208.847364 C899.29439,214.587393 885.924524,217.457364 871.364451,217.457364 L822.644451,217.457364 L822.644451,309.017364 L740.744451,309.017364 Z M822.644451,146.057364 L822.644451,82.2173641 L863.804451,82.2173641 C868.844476,82.2173641 873.884426,84.4573417 878.924451,88.9373641 C883.964476,93.4173865 886.484451,101.817302 886.484451,114.137364 C886.484451,126.177424 884.314473,134.507341 879.974451,139.127364 C875.634429,143.747387 870.944476,146.057364 865.904451,146.057364 L822.644451,146.057364 Z M648.5,0.5 C671.143675,0.5 689.5,18.8563253 689.5,41.5 C689.5,64.1436747 671.143675,82.5 648.5,82.5 C625.856325,82.5 607.5,64.1436747 607.5,41.5 C607.5,18.8563253 625.856325,0.5 648.5,0.5 Z" id="CHIP"></path>
        </g>
    </g>
</svg>