<?xml version="1.0" encoding="UTF-8"?>
<svg width="120px" height="120px" viewBox="0 0 120 120" version="1.1" xmlns="http://www.w3.org/2000/svg" xmlns:xlink="http://www.w3.org/1999/xlink">
    <!-- Generator: Sketch 50.2 (55047) - http://www.bohemiancoding.com/sketch -->
    <title>merit_profile-icon</title>
    <desc>Created with Sketch.</desc>
    <defs></defs>
    <g id="merit_profile-icon" stroke="none" stroke-width="1" fill="none" fill-rule="evenodd">
        <g id="point_profile-icon">
            <g id="user" transform="translate(12.500000, 13.000000)" fill="#000000" fill-rule="nonzero">
                <path d="M95,47.5 C95,21.3093636 73.6906364,0 47.5,0 C21.3093636,0 0,21.3093636 0,47.5 C0,61.3337273 5.94872727,73.8029091 15.4176364,82.4910909 L15.3727273,82.5308182 L16.9134545,83.8297273 C17.0136364,83.9143636 17.1224545,83.9834545 17.2226364,84.0663636 C18.0413636,84.7451818 18.8894545,85.3894545 19.7530909,86.013 C20.0329091,86.2150909 20.3127273,86.4171818 20.5977273,86.6140909 C21.5200909,87.2497273 22.4666364,87.8525455 23.4339091,88.4242727 C23.6446364,88.5486364 23.8570909,88.6695455 24.0695455,88.7904545 C25.1283636,89.3932727 26.2096364,89.9615455 27.3168182,90.4831818 C27.398,90.5211818 27.4809091,90.5557273 27.5620909,90.5937273 C31.1703636,92.2709091 35.0221818,93.5024545 39.0501818,94.2296364 C39.1555455,94.2486364 39.2609091,94.2676364 39.368,94.2866364 C40.6185455,94.5025455 41.8829091,94.6752727 43.1628182,94.791 C43.3182727,94.8048182 43.4737273,94.8134545 43.6309091,94.8272727 C44.9056364,94.9326364 46.1941818,95 47.5,95 C48.7937273,95 50.0701818,94.9326364 51.338,94.8307273 C51.4986364,94.8169091 51.6592727,94.8082727 51.8199091,94.7944545 C53.0894545,94.6787273 54.3434545,94.5111818 55.5819091,94.2987273 C55.689,94.2797273 55.7978182,94.2607273 55.9049091,94.24 C59.8724545,93.5283636 63.669,92.3244545 67.2306364,90.6904545 C67.3619091,90.63 67.4949091,90.573 67.6261818,90.5108182 C68.6919091,90.0099091 69.7334545,89.4692727 70.7542727,88.8940909 C71.0081818,88.7507273 71.2603636,88.6056364 71.5125455,88.4570909 C72.4418182,87.9095455 73.3555455,87.3378182 74.2433636,86.7298182 C74.5629091,86.5121818 74.8755455,86.2824545 75.1916364,86.0544545 C75.9499091,85.5086364 76.6943636,84.9455455 77.4180909,84.3565455 C77.5787273,84.227 77.7514545,84.1147273 77.9086364,83.9817273 L79.4890909,82.6620909 L79.4424545,82.6223636 C88.9942727,73.9307273 95,61.4045455 95,47.5 Z M3.45454545,47.5 C3.45454545,23.2128182 23.2128182,3.45454545 47.5,3.45454545 C71.7871818,3.45454545 91.5454545,23.2128182 91.5454545,47.5 C91.5454545,60.5875455 85.8022727,72.3537273 76.7099091,80.427 C76.2020909,80.0763636 75.6908182,79.762 75.1674545,79.4994545 L60.5426364,72.1879091 C59.2299091,71.5315455 58.4146364,70.2119091 58.4146364,68.7454545 L58.4146364,63.6379091 C58.7531818,63.2199091 59.1107273,62.7466364 59.4803636,62.2267273 C61.3734545,59.5529091 62.8917273,56.5785455 63.9989091,53.3779091 C66.1873636,52.3380909 67.6002727,50.1582727 67.6002727,47.6969091 L67.6002727,41.5737273 C67.6002727,40.0761818 67.051,38.6235455 66.0681818,37.4818182 L66.0681818,29.4206364 C66.158,28.5241818 66.4758182,23.465 62.8157273,19.2919091 C59.6323636,15.6577273 54.4799091,13.8181818 47.5,13.8181818 C40.5200909,13.8181818 35.3676364,15.6577273 32.1842727,19.2901818 C28.5241818,23.4632727 28.842,28.5224545 28.9318182,29.4189091 L28.9318182,37.4800909 C27.9507273,38.6218182 27.3997273,40.0744545 27.3997273,41.572 L27.3997273,47.6951818 C27.3997273,49.5969091 28.253,51.3708182 29.7142727,52.5678182 C31.1133636,58.0484545 33.9927273,62.1973636 35.0567273,63.6033636 L35.0567273,68.6020909 C35.0567273,70.0115455 34.2880909,71.307 33.0496364,71.9840909 L19.3920909,79.4338182 C18.9568182,79.6704545 18.525,79.9468182 18.0931818,80.256 C9.11309091,72.1861818 3.45454545,60.4925455 3.45454545,47.5 Z M73.3382727,83.1370909 C72.7337273,83.5758182 72.1188182,84.0007273 71.4952727,84.4066364 C71.2085455,84.5931818 70.9235455,84.7797273 70.6316364,84.9610909 C69.8163636,85.4654545 68.9872727,85.9456364 68.1409091,86.3947273 C67.9543636,86.4931818 67.7660909,86.5864545 67.5778182,86.6831818 C65.6329091,87.6798182 63.6206364,88.5365455 61.5530909,89.2326364 C61.4805455,89.2568182 61.408,89.2827273 61.3337273,89.3069091 C60.2507273,89.6661818 59.1539091,89.9857273 58.045,90.2603636 C58.0415455,90.2603636 58.0380909,90.2620909 58.0346364,90.2620909 C56.9153636,90.5384545 55.7822727,90.7681818 54.6422727,90.9564545 C54.6111818,90.9616364 54.5800909,90.9685455 54.549,90.9737273 C53.4763636,91.1481818 52.3950909,91.2742727 51.3103636,91.3692727 C51.1186364,91.3865455 50.9269091,91.3986364 50.7334545,91.4124545 C49.6608182,91.4936364 48.583,91.5454545 47.5,91.5454545 C46.4049091,91.5454545 45.3132727,91.4919091 44.2268182,91.4107273 C44.0385455,91.3969091 43.8502727,91.3848182 43.6637273,91.3675455 C42.5686364,91.2708182 41.4787273,91.1412727 40.3991818,90.9650909 C40.3508182,90.9564545 40.3024545,90.9478182 40.2540909,90.9391818 C37.9706364,90.5574545 35.7234545,89.9960909 33.535,89.262 C33.4676364,89.2395455 33.3985455,89.2153636 33.3311818,89.1929091 C32.2447273,88.8232727 31.1703636,88.4139091 30.115,87.9613636 C30.1080909,87.9579091 30.0994545,87.9544545 30.0925455,87.951 C29.0941818,87.5209091 28.1148182,87.0441818 27.1475455,86.5415455 C27.0214545,86.4759091 26.8936364,86.4137273 26.7692727,86.3463636 C25.8866364,85.8748182 25.023,85.3652727 24.1714545,84.8332727 C23.9192727,84.6743636 23.6688182,84.5137273 23.4200909,84.3513636 C22.6359091,83.8383636 21.8620909,83.3046364 21.109,82.7398182 C21.0312727,82.6810909 20.957,82.6189091 20.8792727,82.5601818 C20.9345455,82.5290909 20.9898182,82.498 21.0450909,82.4669091 L34.7026364,75.0171818 C37.0517273,73.7355455 38.5112727,71.2776364 38.5112727,68.6020909 L38.5095455,62.3804545 L38.1122727,61.9002727 C38.0742727,61.8570909 34.3399091,57.3143636 32.9287273,51.1635455 L32.7715455,50.4795455 L32.1825455,50.0978182 C31.3517273,49.5606364 30.8542727,48.6624545 30.8542727,47.6934545 L30.8542727,41.5702727 C30.8542727,40.7670909 31.1945455,40.0191818 31.8163636,39.4578182 L32.3863636,38.9430909 L32.3863636,29.3221818 L32.3708182,29.0959091 C32.3656364,29.0544545 31.8560909,24.9003636 34.7820909,21.565 C37.2797273,18.7184545 41.5599091,17.2727273 47.5,17.2727273 C53.4176364,17.2727273 57.684,18.7063636 60.1885455,21.5321818 C63.1110909,24.833 62.6326364,29.0648182 62.6291818,29.0993636 L62.6136364,38.9465455 L63.1836364,39.4612727 C63.8037273,40.0209091 64.1457273,40.7705455 64.1457273,41.5737273 L64.1457273,47.6969091 C64.1457273,48.9284545 63.308,50.046 62.1058182,50.4173636 L61.2473636,50.6816364 L60.971,51.5366364 C59.9519091,54.7027273 58.501,57.627 56.6597273,60.2282727 C56.2071818,60.8673636 55.7667273,61.4339091 55.3884545,61.8674545 L54.9600909,62.3562727 L54.9600909,68.7454545 C54.9600909,71.5298182 56.5077273,74.0343636 58.9984545,75.278 L73.6232727,82.5895455 C73.7165455,82.6361818 73.8080909,82.6845455 73.8996364,82.7329091 C73.7148182,82.8728182 73.5248182,83.0023636 73.3382727,83.1370909 Z" id="Shape"></path>
            </g>
            <rect id="Rectangle" x="0" y="0.5" width="120" height="120"></rect>
        </g>
    </g>
</svg>