<?xml version="1.0" encoding="UTF-8"?>
<svg width="120px" height="120px" viewBox="0 0 120 120" version="1.1" xmlns="http://www.w3.org/2000/svg" xmlns:xlink="http://www.w3.org/1999/xlink">
    <!-- Generator: Sketch 50.2 (55047) - http://www.bohemiancoding.com/sketch -->
    <title>merit_love-icon</title>
    <desc>Created with Sketch.</desc>
    <defs></defs>
    <g id="merit_love-icon" stroke="none" stroke-width="1" fill="none" fill-rule="evenodd">
        <g id="point_love-icon">
            <path d="M37.5419531,25.4132363 C31.2602438,25.4132363 25.0042718,27.7875517 20.2126265,32.5540696 C10.6293361,42.0870944 10.6403826,57.5219763 20.2126265,67.062392 L58.9099927,105.636613 C59.3250133,106.05177 59.8905697,106.285375 60.480641,106.285375 C61.0707123,106.285375 61.6362687,106.05177 62.0512892,105.636613 C74.9696323,92.7862293 87.8649985,79.946888 100.783231,67.096504 C110.366522,57.5635448 110.366522,42.1554277 100.783231,32.6224029 C91.1999404,23.0893781 75.6737369,23.0892688 66.0902253,32.6224029 L60.5323939,38.1232363 L54.9056323,32.5540696 C50.1139869,27.7875627 43.823552,25.4132363 37.5419531,25.4132363 Z M37.5419531,29.7524029 C42.6755985,29.7524029 47.8089113,31.69448 51.7643358,35.6290696 L58.9445683,42.7699029 C59.3595889,43.1850598 59.9251453,43.418665 60.5152166,43.418665 C61.1052878,43.418665 61.6708443,43.1850598 62.0858648,42.7699029 L69.2315218,35.6974029 C77.1424811,27.8281035 89.7656613,27.8282347 97.6762892,35.6974029 C105.587138,43.5665712 105.587138,56.1524013 97.6762892,64.0216133 C85.2861904,76.3466507 72.8881381,88.6648 60.4979288,100.989947 L23.3195683,63.987392 C15.4146849,56.1087992 15.4087198,43.4982379 23.3195683,35.6290696 C27.2748834,31.6944909 32.4081973,29.7524029 37.5419531,29.7524029 Z" id="Shape" fill="#000000" fill-rule="nonzero"></path>
            <rect id="Rectangle" x="0.5" y="0" width="120" height="120"></rect>
        </g>
    </g>
</svg>