<?xml version="1.0" encoding="UTF-8"?>
<svg width="258px" height="253px" viewBox="0 0 258 253" version="1.1" xmlns="http://www.w3.org/2000/svg" xmlns:xlink="http://www.w3.org/1999/xlink">
    <!-- Generator: Sketch 50.2 (55047) - http://www.bohemiancoding.com/sketch -->
    <title>point_money-icon</title>
    <desc>Created with Sketch.</desc>
    <defs></defs>
    <g id="Page-1" stroke="none" stroke-width="1" fill="none" fill-rule="evenodd" opacity="0.449999988">
        <g id="iPhone-SE" transform="translate(-30.000000, -2597.000000)">
            <g id="point_money-icon" transform="translate(10.000000, 2575.000000)">
                <g transform="translate(20.000000, 22.772277)" fill="#FFFFFF" fill-rule="nonzero">
                    <path d="M230.390243,177.074927 C222.777573,177.074927 215.548459,178.562902 210.554927,181.156754 C210.525704,181.167776 210.518398,181.193494 210.489175,181.204517 L181.222039,195.077586 C181.229345,194.904907 181.258568,194.735903 181.258568,194.55955 C181.258568,186.943323 175.107063,180.745265 167.560146,180.745265 C167.523617,180.745265 167.501699,180.763635 167.468823,180.763635 L133.288519,180.763635 C129.898617,178.746603 126.833823,176.00579 123.608301,173.08495 C115.148155,165.417287 105.562913,156.728249 85.8225728,156.728249 L48.8368325,156.728249 L48.8368325,149.075282 C48.8368325,147.047227 47.2003277,145.40127 45.1839199,145.40127 L4.08865291,145.40127 C2.07224515,145.40127 0.435740291,147.047227 0.435740291,149.075282 L0.435740291,239.088575 C0.435740291,241.120303 2.07224515,242.762587 4.08865291,242.762587 L45.1839199,242.762587 C47.2003277,242.762587 48.8368325,241.120303 48.8368325,239.088575 L48.8368325,224.928933 C66.2393083,234.947963 103.378471,251.984357 137.124078,251.984357 C142.932209,251.984357 148.65267,251.473669 154.139345,250.342073 C154.153956,250.338399 154.161262,250.327377 154.175874,250.323703 C154.482718,250.257571 154.789563,250.158373 155.081796,250.004064 L248.789964,201.224208 C249.794515,200.779652 250.682172,200.327749 251.423714,199.868497 C251.529648,199.809713 251.639235,199.750929 251.74517,199.684797 C256.552403,196.616997 257.567913,193.185469 257.567913,190.852472 C257.56426,181.807054 243.895061,177.074927 230.390243,177.074927 Z M41.5310073,235.418237 L7.74156553,235.418237 L7.74156553,152.752968 L41.5310073,152.752968 L41.5310073,235.418237 Z M48.8368325,216.390529 L48.8368325,164.079947 L85.8225728,164.079947 C102.753823,164.079947 110.866942,171.435319 118.717051,178.548206 C122.326129,181.821751 126.059405,185.205516 130.47943,187.656082 C130.556141,187.70017 130.636505,187.714866 130.709563,187.747932 C130.797233,187.788346 130.888556,187.821412 130.979879,187.854478 C131.392658,188.005113 131.816396,188.107985 132.240133,188.107985 C132.240133,188.107985 132.240133,188.107985 132.243786,188.107985 L167.560146,188.107985 C167.582063,188.107985 167.596675,188.096963 167.618592,188.096963 C171.11443,188.130029 173.952743,191.010454 173.952743,194.555876 C173.952743,196.639041 172.93358,198.578919 171.220364,199.798691 C171.085206,199.861149 170.950049,199.934629 170.829502,200.015458 C169.879745,200.617996 168.718119,200.952331 167.560146,200.952331 C167.523617,200.952331 167.501699,200.970701 167.468823,200.970701 L101.804066,200.970701 C99.7876578,200.970701 98.1511529,202.612984 98.1511529,204.644713 C98.1511529,206.676441 99.7876578,208.318725 101.804066,208.318725 L167.560146,208.318725 C167.603981,208.318725 167.644163,208.293007 167.687998,208.293007 C170.044126,208.267289 172.327197,207.639033 174.321687,206.463349 C174.328993,206.463349 174.336299,206.463349 174.343604,206.459675 L213.791408,187.758954 C213.827937,187.740584 213.849854,187.703844 213.890036,187.685474 C213.890036,187.6818 213.897342,187.685474 213.904648,187.6818 C217.835182,185.635375 224.001299,184.415603 230.38659,184.415603 C243.29233,184.415603 250.254782,188.978726 250.254782,190.845124 C250.254782,191.341115 249.619175,192.314729 247.9571,193.376518 L152.221566,243.225512 C114.180133,250.823369 63.5653762,225.443294 48.8368325,216.390529 Z" id="Shape"></path>
                    <path d="M136.634587,152.752968 C156.776748,152.752968 173.163714,136.275024 173.163714,116.012849 C173.163714,95.7543466 156.776748,79.272729 136.634587,79.272729 C116.488774,79.272729 100.101808,95.7543466 100.101808,116.012849 C100.101808,136.27135 116.488774,152.752968 136.634587,152.752968 Z M136.634587,86.6207529 C152.743932,86.6207529 165.857888,99.8067818 165.857888,116.012849 C165.857888,132.218915 152.743932,145.404944 136.634587,145.404944 C120.517937,145.404944 107.407633,132.218915 107.407633,116.012849 C107.407633,99.8067818 120.517937,86.6207529 136.634587,86.6207529 Z" id="Shape"></path>
                    <path d="M192.520498,73.6735348 C212.662658,73.6735348 229.049624,57.1919172 229.049624,36.9334153 C229.049624,16.6749134 212.662658,0.193295833 192.520498,0.193295833 C172.378337,0.193295833 155.991371,16.6749134 155.991371,36.9334153 C155.991371,57.1919172 172.378337,73.6735348 192.520498,73.6735348 Z M192.520498,7.54131973 C208.629842,7.54131973 221.743799,20.7273486 221.743799,36.9334153 C221.743799,53.139482 208.629842,66.3255109 192.520498,66.3255109 C176.403847,66.3255109 163.297197,53.139482 163.297197,36.9334153 C163.297197,20.7273486 176.403847,7.54131973 192.520498,7.54131973 Z" id="Shape"></path>
                    <path d="M136.634587,131.932342 C138.654648,131.932342 140.2875,130.290059 140.2875,128.25833 L140.2875,103.767367 C140.2875,101.739312 138.654648,100.093355 136.634587,100.093355 C134.614527,100.093355 132.981675,101.739312 132.981675,103.767367 L132.981675,128.25833 C132.981675,130.290059 134.614527,131.932342 136.634587,131.932342 Z" id="Shape"></path>
                    <path d="M192.520498,53.9918528 C194.540558,53.9918528 196.17341,52.3458954 196.17341,50.3178409 L196.17341,23.5526638 C196.17341,21.5246092 194.540558,19.8786519 192.520498,19.8786519 C190.500437,19.8786519 188.867585,21.5246092 188.867585,23.5526638 L188.867585,50.3178409 C188.867585,52.3458954 190.500437,53.9918528 192.520498,53.9918528 Z" id="Shape"></path>
                    <ellipse id="Oval" cx="24.6362864" cy="221.662736" rx="7.30582524" ry="7.3480239"></ellipse>
                </g>
                <rect id="Rectangle" x="0" y="0" width="300" height="300"></rect>
            </g>
        </g>
    </g>
</svg>