<?xml version="1.0" encoding="UTF-8"?>
<svg width="30px" height="30px" viewBox="0 0 30 30" version="1.1" xmlns="http://www.w3.org/2000/svg" xmlns:xlink="http://www.w3.org/1999/xlink">
    <!-- Generator: Sketch 50.2 (55047) - http://www.bohemiancoding.com/sketch -->
    <title>Artboard 3</title>
    <desc>Created with Sketch.</desc>
    <defs></defs>
    <g id="Artboard-3" stroke="none" stroke-width="1" fill="none" fill-rule="evenodd">
        <path d="M19.336,22.008 C18.727997,22.408002 18.0680036,22.7199989 17.356,22.944 C16.6439964,23.1680011 15.8800041,23.28 15.064,23.28 C13.863994,23.28 12.768005,23.0320025 11.776,22.536 C10.783995,22.0399975 9.93200356,21.392004 9.22,20.592 C8.50799644,19.791996 7.96000192,18.8720052 7.576,17.832 C7.19199808,16.7919948 7,15.7280054 7,14.64 C7,13.5039943 7.20399796,12.4160052 7.612,11.376 C8.02000204,10.3359948 8.58799636,9.416004 9.316,8.616 C10.0440036,7.815996 10.903995,7.18000236 11.896,6.708 C12.888005,6.23599764 13.9679942,6 15.136,6 C16.336006,6 17.431995,6.25199748 18.424,6.756 C19.416005,7.26000252 20.2639965,7.91999592 20.968,8.736 C21.6720035,9.55200408 22.2159981,10.4799948 22.6,11.52 C22.9840019,12.5600052 23.176,13.6159946 23.176,14.688 C23.176,15.7760054 22.9960018,16.8119951 22.636,17.796 C22.2759982,18.7800049 21.7600034,19.6639961 21.088,20.448 L23.512,23.16 L20.368,23.16 L19.336,22.008 Z M15.112,20.352 C15.9280041,20.352 16.6639967,20.152002 17.32,19.752 L14.752,16.848 L17.896,16.848 L18.952,18.048 C19.544003,17.0079948 19.84,15.8720062 19.84,14.64 C19.84,13.9039963 19.7280011,13.1920034 19.504,12.504 C19.2799989,11.8159966 18.964002,11.2080026 18.556,10.68 C18.147998,10.1519974 17.6520029,9.7280016 17.068,9.408 C16.4839971,9.0879984 15.8240037,8.928 15.088,8.928 C14.3199962,8.928 13.6440029,9.09199836 13.06,9.42 C12.4759971,9.74800164 11.980002,10.1839973 11.572,10.728 C11.163998,11.2720027 10.856001,11.8839966 10.648,12.564 C10.439999,13.2440034 10.336,13.9359965 10.336,14.64 C10.336,15.3760037 10.4439989,16.0879966 10.66,16.776 C10.8760011,17.4640034 11.187998,18.0719974 11.596,18.6 C12.004002,19.1280026 12.503997,19.5519984 13.096,19.872 C13.688003,20.1920016 14.3599962,20.352 15.112,20.352 Z" id="Q" fill="#FF1FB3"></path>
    </g>
</svg>