<?xml version="1.0" encoding="UTF-8"?>
<svg width="361px" height="292px" viewBox="0 0 361 292" version="1.1" xmlns="http://www.w3.org/2000/svg" xmlns:xlink="http://www.w3.org/1999/xlink">
    <!-- Generator: Sketch 50.2 (55047) - http://www.bohemiancoding.com/sketch -->
    <title>Group 4</title>
    <desc>Created with Sketch.</desc>
    <defs>
        <linearGradient x1="0%" y1="-5.25707527%" x2="98.2952493%" y2="98.2056292%" id="linearGradient-1">
            <stop stop-color="#00D4FF" offset="0%"></stop>
            <stop stop-color="#1398E2" offset="100%"></stop>
        </linearGradient>
    </defs>
    <g id="Page-1" stroke="none" stroke-width="1" fill="none" fill-rule="evenodd">
        <g id="Desktop-HD---1440" transform="translate(-225.000000, -4567.000000)" fill="url(#linearGradient-1)" fill-rule="nonzero">
            <g id="Group-4" transform="translate(225.000000, 4567.000000)">
                <path d="M238.557496,117.909297 C219.775637,117.909297 204.124087,106.953213 196.298313,91.3016632 L135.778988,131.995692 C137.865861,137.734594 139.431016,143.473495 139.431016,149.734115 C139.431016,155.994735 138.387579,161.733636 135.778988,167.472538 L195.776594,207.644848 C203.080651,191.47158 219.253919,180.515496 238.035778,180.515496 C264.121694,180.515496 284.990427,201.384229 284.990427,227.470144 C284.990427,253.55606 264.121694,274.424793 238.035778,274.424793 C211.949862,274.424793 191.081129,253.55606 191.081129,227.470144 C191.081129,224.339835 191.602848,220.687806 192.124566,217.557496 L130.561804,176.341749 C122.214311,188.341271 108.127917,196.688764 91.9546487,196.688764 C65.8687328,196.688764 45,175.820031 45,149.734115 C45,123.648199 65.8687328,102.779466 91.9546487,102.779466 C107.606198,102.779466 121.692593,110.605241 130.040086,122.604762 L192.124566,81.3890151 C191.602848,78.2587052 191.081129,74.606677 191.081129,70.9546487 C191.081129,44.8687328 211.949862,24 238.035778,24 C264.121694,24 284.990427,44.8687328 284.990427,70.9546487 C285.512145,97.0405647 264.643412,117.909297 238.557496,117.909297 Z M238.557496,263.990427 C258.904511,263.990427 275.077779,247.817159 275.077779,227.470144 C275.077779,207.12313 258.904511,190.949862 238.557496,190.949862 C218.210482,190.949862 202.037214,207.12313 202.037214,227.470144 C202.037214,247.817159 218.210482,263.990427 238.557496,263.990427 Z M92.476367,113.213833 C72.1293526,113.213833 55.9560847,129.3871 55.9560847,149.734115 C55.9560847,170.081129 72.1293526,186.254397 92.476367,186.254397 C112.823381,186.254397 128.996649,170.081129 128.996649,149.734115 C128.996649,129.908819 112.301663,113.213833 92.476367,113.213833 Z M238.557496,34.4343664 C218.210482,34.4343664 202.037214,50.6076343 202.037214,70.9546487 C202.037214,91.3016632 218.210482,107.474931 238.557496,107.474931 C258.904511,107.474931 275.077779,91.3016632 275.077779,70.9546487 C275.077779,50.6076343 258.382793,34.4343664 238.557496,34.4343664 Z" id="Shape"></path>
                <g id="instagram" transform="translate(311.000000, 99.000000)">
                    <path d="M35.0432971,0 L14.8692029,0 C6.67028986,0 0,6.67028986 0,14.8692029 L0,35.0432971 C0,43.2422101 6.67028986,49.9125 14.8692029,49.9125 L35.0432971,49.9125 C43.2422101,49.9125 49.9125,43.2422101 49.9125,35.0432971 L49.9125,14.8692029 C49.9124094,6.67028986 43.2421196,0 35.0432971,0 Z M44.8913043,35.0432971 C44.8913043,40.4821558 40.4821558,44.8913043 35.0432971,44.8913043 L14.8692029,44.8913043 C9.4303442,44.8913043 5.02119565,40.4821558 5.02119565,35.0432971 L5.02119565,14.8692029 C5.02119565,9.43025362 9.4303442,5.02119565 14.8692029,5.02119565 L35.0432971,5.02119565 C40.4821558,5.02119565 44.8913043,9.43025362 44.8913043,14.8692029 L44.8913043,35.0432971 Z" id="Shape"></path>
                    <path d="M24.95625,12.0471014 C17.8381341,12.0471014 12.0471014,17.8381341 12.0471014,24.9561594 C12.0471014,32.0741848 17.8381341,37.865308 24.95625,37.865308 C32.0743659,37.865308 37.8653986,32.0742754 37.8653986,24.9561594 C37.8653986,17.8380435 32.0743659,12.0471014 24.95625,12.0471014 Z M24.95625,32.8442029 C20.5998188,32.8442029 17.0682971,29.3126812 17.0682971,24.95625 C17.0682971,20.5998188 20.5999094,17.0682971 24.95625,17.0682971 C29.3126812,17.0682971 32.8442029,20.5998188 32.8442029,24.95625 C32.8442029,29.3125906 29.3125906,32.8442029 24.95625,32.8442029 Z" id="Shape"></path>
                    <circle id="Oval" cx="37.8903986" cy="12.1440217" r="3.0932971"></circle>
                </g>
                <g id="twitter" transform="translate(81.000000, 0.000000)">
                    <path d="M59.999997,5.772 C57.792597,6.7512 55.419897,7.4127 52.930197,7.7103 C55.471197,6.1869 57.423297,3.7746 58.342497,0.9 C55.963797,2.3109 53.329497,3.3351 50.525397,3.8871 C48.280197,1.4946 45.080997,0 41.540397,0 C34.742397,0 29.230557,5.5113 29.230557,12.3093 C29.230557,13.2741 29.339397,14.2137 29.549307,15.1146 C19.318827,14.6013 10.248267,9.7005 4.177137,2.253 C3.117417,4.071 2.510388,6.1857 2.510388,8.4417 C2.510388,12.7125 4.683507,16.4802 7.986687,18.6876 C5.968827,18.6237 4.070637,18.0699 2.41113,17.148 C2.40996,17.1993 2.40996,17.2506 2.40996,17.3028 C2.40996,23.26689 6.65319,28.24185 12.28431,29.37306 C11.25153,29.65431 10.16403,29.80491 9.04137,29.80491 C8.24814,29.80491 7.47702,29.72757 6.72528,29.58399 C8.29173,34.47423 12.83778,38.03346 18.2244,38.13237 C14.01153,41.43423 8.70387,43.40217 2.936484,43.40217 C1.942851,43.40217 0.962931,43.3437 2.84217094e-14,43.23003 C5.44758,46.722558 11.9181,48.7608 18.86964,48.7608 C41.5116,48.7608 53.8935,30.00366 53.8935,13.7367 C53.8935,13.203 53.8812,12.6723 53.8575,12.1443 C56.262897,10.4085 58.349697,8.2407 59.999997,5.772" id="Shape"></path>
                </g>
                <g id="web" transform="translate(0.000000, 242.000000)">
                    <path d="M49.94,23.3333333 C49.12,10.8533333 39.1466667,0.876666667 26.6666667,0.0566666667 L26.6666667,0 L25,0 L23.3333333,0 L23.3333333,0.0566666667 C10.8533333,0.876666667 0.876666667,10.8533333 0.0566666667,23.3333333 L0,23.3333333 L0,25 L0,26.6666667 L0.0566666667,26.6666667 C0.876666667,39.1466667 10.8533333,49.12 23.3333333,49.94 L23.3333333,50 L25,50 L26.6666667,50 L26.6666667,49.94 C39.1466667,49.12 49.12,39.1466667 49.94,26.6666667 L50,26.6666667 L50,25 L50,23.3333333 L49.94,23.3333333 Z M15.65,5.45 C14.04,7.59 12.7033333,10.2733333 11.73,13.3333333 L6.73666667,13.3333333 C8.91,9.94333333 11.9966667,7.2 15.65,5.45 Z M4.99333333,16.6666667 L10.8533333,16.6666667 C10.4066667,18.7733333 10.1233333,21.01 10.0333333,23.3333333 L3.39666667,23.3333333 C3.57333333,20.9866667 4.12666667,18.7433333 4.99333333,16.6666667 Z M3.39666667,26.6666667 L10.0333333,26.6666667 C10.1233333,28.99 10.4066667,31.2266667 10.8533333,33.3333333 L4.99333333,33.3333333 C4.12666667,31.2566667 3.57333333,29.0133333 3.39666667,26.6666667 Z M6.73666667,36.6666667 L11.7266667,36.6666667 C12.7,39.7266667 14.0366667,42.41 15.65,44.55 C11.9966667,42.8 8.91,40.06 6.73666667,36.6666667 Z M23.3333333,46.4533333 C19.9066667,45.5366667 16.9566667,41.8566667 15.1666667,36.6666667 L23.3333333,36.6666667 L23.3333333,46.4533333 Z M23.3333333,33.3333333 L14.23,33.3333333 C13.76,31.2566667 13.4633333,29.0133333 13.3666667,26.6666667 L23.3333333,26.6666667 L23.3333333,33.3333333 Z M23.3333333,23.3333333 L13.3666667,23.3333333 C13.4633333,20.9866667 13.76,18.7433333 14.23,16.6666667 L23.3333333,16.6666667 L23.3333333,23.3333333 Z M23.3333333,13.3333333 L15.1666667,13.3333333 C16.9566667,8.14333333 19.9066667,4.46333333 23.3333333,3.55 L23.3333333,13.3333333 Z M43.2633333,13.3333333 L38.2766667,13.3333333 C37.3,10.2733333 35.9666667,7.59 34.35,5.45 C38,7.2 41.09,9.94333333 43.2633333,13.3333333 Z M26.6666667,3.55 C30.09,4.46333333 33.0433333,8.14333333 34.8333333,13.3333333 L26.6666667,13.3333333 L26.6666667,3.55 Z M26.6666667,16.6666667 L35.7666667,16.6666667 C36.24,18.7433333 36.53,20.9866667 36.6333333,23.3333333 L26.6666667,23.3333333 L26.6666667,16.6666667 Z M26.6666667,26.6666667 L36.6333333,26.6666667 C36.5366667,29.0133333 36.24,31.2566667 35.7666667,33.3333333 L26.6666667,33.3333333 L26.6666667,26.6666667 Z M26.6666667,46.4533333 L26.6666667,36.6666667 L34.8333333,36.6666667 C33.0433333,41.8566667 30.09,45.5366667 26.6666667,46.4533333 Z M34.35,44.55 C35.96,42.4066667 37.3,39.7266667 38.2766667,36.6666667 L43.2633333,36.6666667 C41.09,40.06 38,42.8 34.35,44.55 Z M45.0066667,33.3333333 L39.1466667,33.3333333 C39.5933333,31.2266667 39.8766667,28.99 39.9666667,26.6666667 L46.6,26.6666667 C46.4266667,29.0133333 45.8733333,31.2566667 45.0066667,33.3333333 Z M39.9666667,23.3333333 C39.8766667,21.01 39.5933333,18.7733333 39.1466667,16.6666667 L45.0066667,16.6666667 C45.8733333,18.7433333 46.4266667,20.9866667 46.6033333,23.3333333 L39.9666667,23.3333333 Z" id="Shape"></path>
                </g>
            </g>
        </g>
    </g>
</svg>